<svg width="61" height="56" viewBox="0 0 61 56" fill="none" xmlns="http://www.w3.org/2000/svg">
<path fill-rule="evenodd" clip-rule="evenodd" d="M20.6615 0.0412678C22.9312 0.0457177 25.1065 0.910103 26.7114 2.44521C28.3163 3.98032 29.2199 6.0611 29.2246 8.23206V26.5273H9.25368C7.9987 26.512 6.76258 26.233 5.63282 25.7101C4.50306 25.1872 3.50728 24.4331 2.71598 23.5013C1.92468 22.5694 1.3572 21.4826 1.05372 20.3177C0.750243 19.1528 0.718182 17.9383 0.959808 16.7603C1.20143 15.5822 1.71084 14.4694 2.45196 13.5005C3.19308 12.5316 4.1478 11.7305 5.24853 11.1537C6.34926 10.5769 7.56909 10.2386 8.82166 10.1627C10.0742 10.0869 11.3289 10.2753 12.4969 10.7147C12.0873 9.48668 11.9867 8.18345 12.2033 6.91117C12.4199 5.63888 12.9475 4.43351 13.7433 3.39321C14.5391 2.3529 15.5805 1.50707 16.7827 0.924597C17.9849 0.34212 19.3139 0.0394621 20.6615 0.0412678ZM40.2192 55.3497C37.9494 55.3453 35.774 54.4807 34.1693 52.9454C32.5645 51.4101 31.6612 49.3291 31.657 47.158V28.8628H51.6251C52.8807 28.8774 54.1175 29.1559 55.248 29.6786C56.3785 30.2012 57.3751 30.9553 58.167 31.8873C58.959 32.8194 59.5269 33.9066 59.8307 35.072C60.1345 36.2373 60.1667 37.4524 59.925 38.6309C59.6832 39.8095 59.1735 40.9229 58.4319 41.892C57.6903 42.8612 56.735 43.6626 55.6336 44.2393C54.5322 44.8161 53.3116 45.1541 52.0585 45.2294C50.8053 45.3048 49.5501 45.1156 48.3819 44.6754C48.7917 45.9033 48.8924 47.2065 48.676 48.4788C48.4596 49.751 47.9321 50.9564 47.1366 51.9968C46.341 53.0372 45.2998 53.8831 44.0977 54.4658C42.8956 55.0484 41.5667 55.3513 40.2192 55.3497Z" fill="white"/>
</svg>
