<svg width="61" height="56" viewBox="0 0 61 56" fill="none" xmlns="http://www.w3.org/2000/svg">
<path fill-rule="evenodd" clip-rule="evenodd" d="M20.661 55.3497C22.9307 55.3453 25.106 54.4809 26.7109 52.9458C28.3158 51.4107 29.2194 49.3299 29.2241 47.1589V28.8628H9.25318C7.99763 28.8774 6.76079 29.1559 5.63028 29.6786C4.49977 30.2012 3.50325 30.9553 2.71131 31.8873C1.91937 32.8194 1.35138 33.9066 1.04759 35.072C0.743791 36.2373 0.711621 37.4524 0.953355 38.6309C1.19509 39.8095 1.70481 40.9229 2.44642 41.892C3.18802 42.8612 4.14336 43.6626 5.24476 44.2393C6.34616 44.8161 7.56668 45.1541 8.81985 45.2294C10.073 45.3048 11.3282 45.1156 12.4964 44.6754C12.0866 45.9035 11.9859 47.2068 12.2024 48.4792C12.4189 49.7516 12.9465 50.9571 13.7423 51.9975C14.5381 53.0379 15.5796 53.8839 16.7819 54.4664C17.9841 55.0489 19.3133 55.3516 20.661 55.3497ZM40.2186 0.0412652C37.9492 0.0459492 35.7741 0.910438 34.1694 2.44552C32.5647 3.9806 31.6612 6.06124 31.6565 8.23206V26.5264H51.6246C52.8796 26.5111 54.1157 26.2321 55.2455 25.7092C56.3753 25.1863 57.371 24.4322 58.1623 23.5004C58.9536 22.5685 59.5211 21.4817 59.8246 20.3168C60.1281 19.1519 60.1601 17.9374 59.9185 16.7594C59.6769 15.5813 59.1675 14.4685 58.4264 13.4996C57.6852 12.5308 56.7305 11.7296 55.6298 11.1528C54.529 10.576 53.3092 10.2377 52.0566 10.1618C50.8041 10.086 49.5494 10.2744 48.3814 10.7138C48.7908 9.48599 48.8913 8.18302 48.6747 6.91099C48.4581 5.63895 47.9306 4.43382 47.1351 3.39366C46.3395 2.35351 45.2984 1.50774 44.0966 0.925189C42.8947 0.342642 41.566 0.0397836 40.2186 0.0412652Z" fill="white"/>
</svg>
